<svg width="77" height="127" viewBox="0 0 77 127" fill="none" xmlns="http://www.w3.org/2000/svg">
<path fill-rule="evenodd" clip-rule="evenodd" d="M20.8848 113.575C20.3218 110.119 20.1129 108.838 19.2651 106.229C18.6675 104.39 18.7047 103.137 18.7446 101.799C18.8047 99.7782 18.8707 97.5634 16.7651 92.8426C14.4218 87.589 13.8715 82.5423 13.3135 77.4254C13.0381 74.8996 12.7608 72.3567 12.2651 69.7634C10.7651 61.9164 6.26506 48.5304 5.26506 45.7609C5.11816 45.3541 4.82785 44.6818 4.45574 43.8202C2.29465 38.816 -2.62548 27.4231 1.76506 24.5279C5.26509 22.22 7.26508 26.8359 10.2651 34.6828C11.3629 37.5543 16.9318 47.915 19.7651 52.6847V22.22C19.7651 21.1427 19.7288 19.9983 19.6919 18.8372C19.492 12.5367 19.2765 5.74657 24.7651 6.5261C29.6113 7.21439 29.1767 14.0608 28.849 19.2217C28.7372 20.9829 28.6379 22.5478 28.7651 23.6047C29.1651 26.9281 30.5984 37.9139 31.2651 42.9913C32.0984 36.2214 33.7651 20.5583 33.7651 12.0651C33.7651 1.4486 33.7651 -0.397741 37.2651 0.0638445C40.7651 0.52543 42.7651 1.44866 42.2651 12.9883C41.897 21.4842 42.0709 24.9761 42.1883 27.3324C42.2303 28.1765 42.2651 28.8749 42.2651 29.6054C42.2651 32.3749 42.2651 38.8371 41.7651 41.6066C41.2651 44.3761 41.7651 48.5304 46.2651 46.6841C48.8663 45.6168 50.9663 44.3953 52.5651 43.4653C53.7322 42.7865 54.6322 42.263 55.2651 42.0682C55.4204 42.0204 55.5811 41.9627 55.7494 41.9023C57.2062 41.3792 59.2311 40.6521 63.2651 44.3761C66.118 47.0098 67.1622 47.7883 67.9266 48.3582C68.368 48.6872 68.716 48.9467 69.2651 49.4536C70.7651 50.8383 71.7651 51.7615 71.2651 54.531C71.0101 55.9433 71.0152 55.9518 71.0814 56.0624C71.145 56.1686 71.2651 56.3691 71.2651 58.0002C73.7651 60.3082 74.7651 63.3012 75.2651 66.5323C75.4142 67.4958 75.7247 68.4289 76.0304 69.3476C76.8937 71.9419 77.719 74.4218 74.7651 77.1487C72.0984 79.6105 71.4318 80.0208 70.0984 80.8414C69.4318 81.2517 68.5984 81.7646 67.2651 82.6878C65.096 84.1896 64.5442 85.42 64.0152 86.5997C63.5686 87.5955 63.1383 88.5551 61.7651 89.6115C60.6029 90.5057 58.8403 91.2612 57.0879 92.0124C54.3169 93.2002 51.5714 94.3772 51.2651 96.0737C51.1758 96.5681 50.991 97.1066 50.7703 97.7495C49.7546 100.709 47.9791 105.881 51.2651 119.153C52.8093 125.39 49.4867 124.747 44.1177 123.71C38.3606 122.597 30.2506 121.029 23.2651 127C21.9607 120.177 21.318 116.233 20.8848 113.575ZM61.4734 58.0353C61.3683 57.7182 61.3378 57.3763 61.2651 56.8389C61.1866 56.2596 61.1476 55.816 61.1173 55.4717C61.0268 54.4441 61.0141 54.2999 60.2651 54.0694C59.7651 53.9155 58.7651 53.4232 58.7651 52.6846C58.7651 52.3671 58.5285 52.5956 58.096 53.0133C57.2711 53.8101 55.7333 55.2954 53.7651 54.9925C53.7651 55.9157 53.7651 57.7621 50.7651 57.7621V60.9932C50.7651 61.4548 55.2651 69.3018 56.7651 71.1481C57.9651 72.6252 61.2651 73 65.2651 69.7634C64.7651 69.6095 63.7651 64.6859 65.2651 62.378C62.4293 59.4328 61.7296 58.8076 61.4734 58.0353Z" fill="#6F564B"/>
<path d="M19.7651 69.3018C24.2651 68.2248 34.8651 63.6704 41.2651 54.0695" stroke="#664841" stroke-width="0.5" stroke-linecap="round"/>
<path d="M42.7651 66.9939C40.4317 68.5325 36.8651 76.041 41.2651 93.7659" stroke="#664841" stroke-width="0.5" stroke-linecap="round"/>
<path d="M47.2651 50.8384C48.0984 52.0693 50.4651 54.5311 53.2651 54.5311" stroke="#664841" stroke-width="0.5" stroke-linecap="round"/>
<path d="M55.7651 48.5304C55.4318 49.2997 55.4651 51.1153 58.2651 52.2231" stroke="#664841" stroke-width="0.5" stroke-linecap="round"/>
<path d="M22.7651 20.3737H28.2651" stroke="#664841" stroke-width="0.5" stroke-linecap="round"/>
<path d="M36.2651 13.9115H41.7651" stroke="#664841" stroke-width="0.5" stroke-linecap="round"/>
<path d="M9.76508 34.6829C8.93174 35.606 6.86508 37.5447 5.26508 37.914" stroke="#664841" stroke-width="0.5" stroke-linecap="round"/>
<path d="M8.76508 47.1457C9.93174 46.838 12.3651 45.6686 12.7651 43.453" stroke="#664841" stroke-width="0.5" stroke-linecap="round"/>
<path d="M23.7651 35.1444C24.9317 35.1444 27.5651 35.1444 28.7651 35.1444" stroke="#664841" stroke-width="0.5" stroke-linecap="round"/>
<path d="M26.2651 32.3749H28.2651" stroke="#664841" stroke-width="0.5" stroke-linecap="round"/>
<path d="M37.7651 28.6823H41.7651" stroke="#664841" stroke-width="0.5" stroke-linecap="round"/>
<path d="M39.2651 25.9127H41.2651" stroke="#664841" stroke-width="0.5" stroke-linecap="round"/>
<path d="M18.2651 53.6079C17.7651 54.9927 16.0651 58.0391 13.2651 59.1469" stroke="#664841" stroke-width="0.5" stroke-linecap="round"/>
<path d="M25.2651 46.2225C26.4317 46.6841 29.0651 47.3303 30.2651 46.2225" stroke="#664841" stroke-width="0.5" stroke-linecap="round"/>
<path d="M36.2651 44.8378C37.5984 44.9917 40.3651 45.1148 40.7651 44.3762" stroke="#664841" stroke-width="0.5" stroke-linecap="round"/>
<path d="M35.7651 41.145H39.2651" stroke="#664841" stroke-width="0.5" stroke-linecap="round"/>
<path d="M42.7651 50.8384C43.0984 52.5309 44.5651 56.2851 47.7651 57.7622" stroke="#664841" stroke-width="0.5" stroke-linecap="round"/>
<path d="M25.2651 101.151C27.7651 101.767 34.1651 102.259 39.7651 99.3049" stroke="#664841" stroke-width="0.5" stroke-linecap="round"/>
<path d="M28.2651 104.844C29.7651 105.459 34.3651 106.229 40.7651 104.382" stroke="#664841" stroke-width="0.5" stroke-linecap="round"/>
<path d="M65.2651 69.7634C65.5984 70.3789 66.6651 71.7021 68.2651 72.0714" stroke="#664841" stroke-width="0.5" stroke-linecap="round"/>
<path d="M30.7979 40.4999C28.2651 43.783 22.6117 44 19.7651 44C18.7651 43.5 19.2651 41.9583 19.7651 42C25.7651 42.5 29.4934 39.7518 30.7979 38.4999C31.2651 39.5 30.8914 40.0565 30.7979 40.4999Z" fill="#FFDC83"/>
</svg>
