<svg width="87" height="39" viewBox="0 0 87 39" fill="none" xmlns="http://www.w3.org/2000/svg">
<path fill-rule="evenodd" clip-rule="evenodd" d="M56.5 4C66.1 6.8 82 8.5 82 8.5C81.001 12.2465 83.0134 15.3052 84.7149 17.8913C86.4324 20.5018 87.8332 22.6309 85.5 24.5C84.5346 24.5 83.3961 24.3794 82.2183 24.2546C79.7364 23.9916 77.0799 23.7101 75.5 24.5C75.1135 24.6933 74.7277 24.8906 74.3392 25.0893L74.3391 25.0893C71.7125 26.4327 68.9611 27.8398 65 28.5C64.1898 28.635 63.1971 28.6971 62.1108 28.7651H62.1108C59.1749 28.9488 55.5547 29.1752 53 31C50.8833 32.5119 49.2048 33.0714 47.7915 33.5424L47.7915 33.5424C47.3353 33.6945 46.9067 33.8373 46.5 34C47 35.5 47.4 37.1 45 37.5C44.5944 37.5676 44.2211 37.6362 43.8768 37.6994L43.8767 37.6994C42.1842 38.0103 41.1925 38.1925 40.5 37.5C39.3086 38.6914 38.1172 38.3057 35.9237 37.5954C35.3555 37.4115 34.7201 37.2057 34 37C31.6139 36.3183 29.6926 33.3126 27.6023 30.0427L27.6023 30.0426C26.6265 28.5162 25.6139 26.9321 24.5 25.5C21.7 21.9 23.7 19.9 25.636 17.964C26.12 17.48 26.6 17 27 16.5C28.4723 14.6596 31.8921 12.3959 33.5974 11.2671C33.7453 11.1692 33.8803 11.0798 34 11C34 11 27 11 24.5 10.5C23 10.2 20.96 10.44 18.92 10.68C17.56 10.84 16.2 11 15 11C13.96 11 13.0401 10.9399 12.1571 10.8822C10.4931 10.7735 8.95994 10.6733 7 11C4.6 11.4 0.500044 10.5 0.500044 8.5C-0.260695 5.07648 2.16182 4.8363 5.7862 4.47697C6.92584 4.36398 8.1843 4.23922 9.5 4C10.5946 3.80099 11.685 3.59884 12.7396 3.40335C16.7896 2.65259 20.3099 2 21.5 2H35.5C38.0297 1.54006 39.0785 1.1859 39.8141 0.9375C40.6779 0.645833 41.1098 0.5 43 0.5C43.9637 0.5 44.5104 0.5 45.0471 0.573048C45.751 0.668837 46.4378 0.890235 48.0252 1.40195C49.624 1.91735 52.1364 2.72727 56.5 4ZM44.9302 22.4775C45.6062 21.6127 48.3101 22.1172 50 22.4775L44 26C43.7183 25.5195 44.2543 23.3424 44.9302 22.4775ZM37 26.5L37.5 30L39 29L37 26.5Z" fill="#DEBFA9"/>
<path d="M13.5 8C13.5 8.83333 13.5 10.1 13.5 10.5" stroke="#D3B59F" stroke-width="0.5" stroke-linecap="round"/>
<path d="M23.5 7.5L24 10" stroke="#D3B59F" stroke-width="0.5" stroke-linecap="round"/>
<path d="M34.5 11.5C38.5 11 39.5 12.5 41.5 12.5C43.5 12.5 45 11.5 45.5 12.5C45.7429 12.9858 48.346 14.5337 50.5 16.2264M47 33.5C45 34.5 41 35.5 39 34.5C37 33.5001 36.2054 31.471 39.5 29C41.8076 27.2694 41.4108 27.5387 44 26" stroke="#D3B59F" stroke-width="0.5" stroke-linecap="round"/>
<path d="M36 20C35.5 21.5 33.3333 23.5 32 24C33.1667 24.1667 35.5 25.2 35.5 28" stroke="#D3B59F" stroke-width="0.5" stroke-linecap="round"/>
<path d="M39 22.5C39.5 23 39.8 24.5 37 26.5" stroke="#D3B59F" stroke-width="0.5" stroke-linecap="round"/>
<path d="M36.5 8C36.3333 8.5 36 9.8 36 11" stroke="#D3B59F" stroke-width="0.5" stroke-linecap="round"/>
<path d="M45 8C44.5 8.66667 43.8 10.5 45 12.5" stroke="#D3B59F" stroke-width="0.5" stroke-linecap="round"/>
<path d="M76 24C77.1667 23.5 79.6 22.8 80 22" stroke="#D3B59F" stroke-width="0.5" stroke-linecap="round"/>
<path d="M32.5 11C30.3171 8.1552 31.1381 3.82785 31.7076 1.95648C32.3172 1.47874 32.6342 1.68631 32.5 2.00001C31 7.5 32.7354 9.69253 33.5 11C32.4937 11.3142 32.8446 11.2207 32.5 11Z" fill="url(#paint0_linear)"/>
<path d="M30 11C28.5 7.5 28.8452 3.92063 29.4999 1.99991C30.1096 1.48181 30.6467 1.67563 30.5 1.99991C28.7404 5.89167 30.3494 9.72757 31 11C30.022 11.377 30.3152 11.2019 30 11Z" fill="url(#paint1_linear)"/>
<path d="M40.5 21C39.3 21 37.8333 19.3334 37.5 18.5C37.8333 18 38.5 17.2 38.5 18C38.5 18.8 40.1667 19.6667 41 20C41 20 41.7 21 40.5 21Z" fill="url(#paint2_linear)"/>
<path d="M31.5 13C31.5 13.8354 31.7547 15.1335 32.5143 16.2575C33.2602 17.3613 34.5033 18.3164 36.5453 18.502C36.8203 18.527 37.0229 18.7702 36.9979 19.0452C36.9729 19.3203 36.7297 19.5229 36.4547 19.4979C34.0967 19.2836 32.5898 18.1553 31.6857 16.8174C30.7953 15.4998 30.5 14.4978 30.5 13.4999C30.5 12.9999 31.1 12.6 31.5 13Z" fill="url(#paint3_linear)"/>
<path d="M44.0985 27.0418C42.8985 26.6418 39.2652 29.2085 37.5985 30.5418C36.0985 31.6719 36.5 33.5 39 33.5C41.5 33.5 43 33 45 32C47 31 45.5985 27.5418 44.0985 27.0418Z" fill="#ECD3C1"/>
<defs>
<linearGradient id="paint0_linear" x1="34.7256" y1="3.16648" x2="30.4967" y2="9.76715" gradientUnits="userSpaceOnUse">
<stop stop-color="#EAEAEA"/>
<stop offset="0.682292" stop-color="#F0F0F0"/>
<stop offset="1" stop-color="#CCCCCC"/>
</linearGradient>
<linearGradient id="paint1_linear" x1="32.4677" y1="3.03846" x2="28.1041" y2="9.84926" gradientUnits="userSpaceOnUse">
<stop stop-color="#EAEAEA"/>
<stop offset="0.682292" stop-color="#F0F0F0"/>
<stop offset="1" stop-color="#CCCCCC"/>
</linearGradient>
<linearGradient id="paint2_linear" x1="37.5" y1="17.5" x2="41" y2="21" gradientUnits="userSpaceOnUse">
<stop stop-color="#DDDDDD"/>
<stop offset="0.682292" stop-color="#F0F0F0"/>
<stop offset="1" stop-color="#CCCCCC"/>
</linearGradient>
<linearGradient id="paint3_linear" x1="30.5" y1="13" x2="37" y2="19.5" gradientUnits="userSpaceOnUse">
<stop stop-color="#EAEAEA"/>
<stop offset="0.682292" stop-color="#F0F0F0"/>
<stop offset="1" stop-color="#CCCCCC"/>
</linearGradient>
</defs>
</svg>
