<svg viewBox="0 0 374 481" fill="none" xmlns="http://www.w3.org/2000/svg">
    <path
            d="M341.5 91.2059C335.9 89.6059 324.833 83.8726 320 81.2059C315.167 82.2059 302.5 84.5059 290.5 85.7059C281.5 86.6059 263.5 99.7059 263.5 103.706C261.5 126.206 267 140.206 271.5 155.706C275.1 168.106 273 196.539 271.5 209.206C305.9 219.606 332.5 213.539 341.5 209.206C342.333 205.039 344.3 192.506 345.5 175.706C347 154.706 355.5 119.206 356 106.706C356.5 94.2059 348.5 93.2059 341.5 91.2059Z"
            fill="#6F504A"
    />
    <path
            d="M321 83.7059L319 69.2059L286 78.2059L291.5 87.7059C306.7 95.7059 317.5 88.3726 321 83.7059Z"
            fill="#6F504A"
    />
    <path
            d="M266.5 236.706C264.1 233.906 269.167 217.206 272 209.206H341C341.333 213.039 342.7 225.006 345.5 242.206C349 263.706 333 266.706 299.5 267.206C266 267.706 269.5 240.206 266.5 236.706Z"
            fill="#1D1E3E"
    />
    <path
            d="M278.5 60.706C276 44.7059 278.5 36.2059 281 23.706C283.426 11.5767 291 10.7059 305.5 10.7059C320 10.7059 328.5 22.2059 327.5 41.7059C326.5 61.2059 319.5 68.2059 315 75.2059C310.5 82.2059 301 84.2059 293 84.7059C285 85.2059 280.748 75.0916 278.5 60.706Z"
            fill="#6F504A"
    />
    <path
            d="M362 116.206C357.5 97.7059 355.5 96.2059 349 93.7059C336 104.706 338.426 108.07 342.5 130.706C347 155.706 353 170.206 353 178.206C353 194.706 371.824 200.206 373.5 171.706C374.5 154.706 366.5 134.706 362 116.206Z"
            fill="#6F504A"
    />
    <path
            d="M347 198.206C351.5 173.706 357 168.706 363 169.706C368.267 169.706 373 171.706 373 179.706C370 198.206 350 236.706 347 242.706C344 248.706 339.5 248.706 336 242.706C332.5 236.706 342.5 222.706 347 198.206Z"
            fill="#6F504A"
    />
    <path
            d="M258.239 115.243C264.159 99.2991 269.112 97.173 276.393 94.0934C294.504 97.867 283.082 115.917 281.736 124.829C280.389 133.742 270.692 160.638 268 166.206C262.681 177.206 265.93 180.042 253.5 178.206C245.077 176.962 249.368 163.038 251 155.206C255.093 135.562 251.57 133.206 258.239 115.243Z"
            fill="#6F504A"
    />
    <path
            d="M241.842 445.065C236.342 440.065 258.842 433.565 278.842 415.565C280.842 411.898 286.542 406.765 293.342 415.565C301.842 426.565 298.842 434.565 290.342 436.065C281.842 437.565 266.842 448.565 256.842 448.565C246.842 448.565 247.342 450.065 241.842 445.065Z"
            fill="#6F504A"
    />
    <path
            d="M324.5 448.706C326.5 435.706 327 438.706 335 430.706C337.333 432.039 342 435.606 342 439.206C342 443.706 348.5 471.206 342 477.206C335.5 483.206 321.5 480.206 321 474.206C320.5 468.206 322.5 461.706 324.5 448.706Z"
            fill="#6F504A"
    />
    <path
            d="M263.824 334.955C247.261 273.835 267.267 232.738 267.535 230.252C277.832 232.7 299.172 239.083 302.153 245.036C305.879 252.477 296.328 299.224 293.657 324.081C292.9 331.122 293.657 334.206 293.657 346.206C293.657 363.206 270.185 358.429 263.824 334.955Z"
            fill="#1D1E3E"
    />
    <path
            d="M301 278.706C297 239.206 324.5 232.706 327 232.206C329.333 229.373 335.8 226.806 343 239.206C352 254.706 343 316.878 343 335.706C343 354.534 318.488 353.159 316 343.206C311.5 325.206 305 318.206 301 278.706Z"
            fill="#1D1E3E"
    />
    <path
            d="M268.636 364.319C265 337.206 261.304 325.855 276.827 325.321C302.347 329.322 294.509 361.754 293.152 378.469C292.143 390.898 296.3 404.097 296.5 414.206C296.569 417.693 291.742 420.206 284 420.206C273.242 420.206 276.738 414.785 276.827 409.206C277.037 396.121 271.204 383.468 268.636 364.319Z"
            fill="#1D1E3E"
    />
    <path
            d="M320.396 375.17C312.765 342.666 315.627 319.664 324.688 332.165C338.994 334.665 340.425 328.665 347.101 351.667C353.063 372.206 347.101 411.206 344.5 428.206C343.505 434.706 342 442.706 342 442.706C339.805 447.381 324.688 444.981 324.688 440.011C324.688 435.206 328.026 407.674 320.396 375.17Z"
            fill="#1D1E3E"
    />
    <circle cx="304.5" cy="46.2059" r="1.5" fill="#1D1E3E" />
    <circle cx="285.5" cy="45.2059" r="1.5" fill="#1D1E3E" />
    <path
            d="M288 88.2059C278 86.7059 277 64.7059 277 57.2059C277 52.3219 277.206 45.2462 278.044 46.7059C278.493 47.4877 279.498 54.1967 280 57.2059C282 69.2059 282.841 64.7059 290 64.7059C300 64.7059 303.818 70.7173 308.5 67.2059C312.5 64.2059 315.5 55.7059 318.5 54.2059L327 49.7059C327 49.7059 326 57.2059 324 61.7059C320.494 69.5933 313.5 80.2059 308.5 86.2059C303.5 92.2059 298 89.7059 288 88.2059Z"
            fill="#1D1E3E"
    />
    <path
            d="M262.5 101.706C264.346 98.7059 276.5 91.7059 285 86.7059C283.5 90.7059 284.8 98.7059 302 98.7059C319.2 98.7059 323.5 87.8726 324 83.2059C329 84.2059 328.5 85.4119 343.5 90.2059C358.5 95 356 98.7059 359 104.206C362 109.706 362 116.706 365.5 127.206C368.3 135.606 372.333 154.706 374 163.206C365.5 168.206 351.5 168.706 350.5 167.206C349.7 166.006 348.167 162.039 347.5 160.206C345.5 172.706 342.692 211.706 342.5 215.206C342.308 218.706 340.4 224.706 336 224.706C330.5 224.706 331 231.206 315.5 230.206C300 229.206 299.5 232.206 285 232.206C275.055 232.029 268.103 228.291 264.5 227.5C264.5 224.333 270.8 202.306 272 192.706C273.5 180.706 272 159.206 272 158.206C272 157.206 271.5 165.706 269.5 165.706C267.5 165.706 248.5 161.706 249.5 158.206C250.3 155.406 252.5 148.206 252.5 142.206C252.5 136.206 254.5 128.206 255.5 120.706C256.5 113.206 258.5 108.206 262.5 101.706Z"
            fill="#FCE2C9"
    />
    <path
            d="M318.5 32.7059C325 34.7059 322 40.206 318.5 54.706C319.833 57.3726 322.8 62.3059 324 60.7059C325.5 58.7059 329.5 49.2059 331 35.2059C332.5 21.2059 322.5 10.2059 316 6.70594C309.5 3.20594 296.5 5.70594 289 8.70594C283 11.1059 280.667 17.5393 281 20.2059C281 23.2059 280 28.2059 281 25.7059C281.928 23.3847 282.877 18.2059 287 18.2059C289.5 18.2059 290 22.7059 296.5 22.7059C303 22.7059 308.5 17.7059 314 19.7059C319.5 21.7059 312 30.7059 318.5 32.7059Z"
            fill="#1D1E3E"
    />
    <path
            fill-rule="evenodd"
            clip-rule="evenodd"
            d="M308.599 38.5776C306.965 37.6566 304.59 37.8562 302.306 38.5776C302.046 38.6596 300 38.5919 300 37.1501C300 34.6429 300.96 36.1586 302.306 36.1733C303.652 36.188 307.195 36.1764 308.922 37.1501C309.788 37.6385 310.499 38.1756 310.995 38.5919C311.244 38.8002 311.439 38.9787 311.573 39.1065C311.64 39.1704 311.692 39.2217 311.728 39.2577C311.746 39.2757 311.76 39.2899 311.77 39.3L311.781 39.3119L311.785 39.3155L311.786 39.3166C311.786 39.3166 311.786 39.3174 311.52 39.948L311.786 39.3166C312.006 39.5488 312.067 40.0201 311.92 40.3684C311.773 40.7165 311.475 40.8107 311.254 40.5789L311.253 40.5775L311.246 40.57L311.213 40.5369C311.183 40.507 311.138 40.462 311.077 40.4046C310.957 40.2896 310.777 40.1248 310.545 39.9304C310.081 39.5415 309.413 39.0365 308.599 38.5776Z"
            fill="#1D1E3E"
    />
    <path
            fill-rule="evenodd"
            clip-rule="evenodd"
            d="M283.831 36.8638C285.27 36.053 287.223 36.4311 289.054 37.3303C289.262 37.4327 290.966 37.5158 291.097 36.057C291.323 33.5201 290.39 34.9826 289.271 34.8977C288.153 34.8128 285.213 34.5383 283.692 35.3955C282.929 35.8254 282.29 36.3161 281.84 36.7005C281.615 36.8929 281.437 37.0591 281.314 37.1785C281.253 37.2382 281.205 37.2862 281.172 37.3199C281.155 37.3368 281.142 37.3502 281.133 37.3596L281.123 37.3708L281.12 37.3742L281.118 37.3753C281.118 37.3753 281.118 37.376 281.282 38.0338L281.118 37.3753C280.914 37.5939 280.822 38.0663 280.912 38.4295C281.003 38.7927 281.242 38.91 281.446 38.6919L281.447 38.6906L281.453 38.6835L281.484 38.6524C281.511 38.6244 281.553 38.5823 281.608 38.5286C281.719 38.4213 281.883 38.2678 282.093 38.0884C282.513 37.7292 283.113 37.2678 283.831 36.8638Z"
            fill="#1D1E3E"
    />
    <path
            fill-rule="evenodd"
            clip-rule="evenodd"
            d="M261.049 167.299C257.794 161.867 257.502 161.96 250.459 164.186L250.459 164.186C249.087 164.62 247.458 165.135 245.5 165.706C242.48 166.587 238.432 169.138 234.521 171.602C231.821 173.304 229.186 174.965 227 176.006C223.289 177.773 218.948 179.02 214.837 180.201C212.968 180.738 211.146 181.261 209.453 181.814C208.608 180.643 203.671 180.307 200.086 180.063C198.41 179.949 197.029 179.856 196.5 179.706C195.249 179.352 192.911 179.524 191.386 179.635C190.857 179.674 190.426 179.706 190.171 179.706C189.087 179.706 188.545 179.706 188.273 179.977C188 180.25 188 180.795 188 181.888C188 182.747 189.75 183.134 191.687 183.562C192.462 183.733 193.266 183.911 194 184.128C194.684 184.33 195.271 184.567 195.788 184.865C193.033 185.684 190.555 186.681 188.864 187.361L188.864 187.361C188.547 187.488 188.258 187.604 188 187.706C181.14 189.486 173.187 192.501 176.5 196.206C179.813 199.911 184.5 201.206 195.5 201.206C198.098 201.206 209.527 197.062 214 193.706C214.572 193.363 215.063 193.051 215.48 192.767C227.187 190.993 246.827 187.77 255.245 182.873C265.269 177.041 264.939 173.789 261.049 167.299Z"
            fill="#6F504A"
    />
    <path
            d="M72.3918 4.56293C66.0037 0.912589 61.4408 -0.45629 50.0335 3.19405L75.1296 19.1643C79.145 22.8146 75.4338 29.3548 73.3044 33.3094C72.0876 36.0471 68.5589 41.8877 64.1785 46.9982C59.7981 52.1087 58.8551 51.2569 57.3341 50.1922L54.5964 66.1625C58.2467 66.1625 64.3306 69.8128 65.5474 71.1817C66.1558 70.5733 70.3841 69.8128 73.3044 69.8128C76.2247 69.8128 83.647 70.2691 87.4495 70.2691C85.0159 69.5086 80.4225 64.1548 88.8183 57.9492C99.3131 50.1922 87.4495 41.0664 85.6243 34.222C83.7991 27.3776 90.6435 26.0087 87.4495 15.0577C84.2554 4.10664 78.7799 8.21328 72.3918 4.56293Z"
            fill="#1D1E3E"
    />
    <path
            d="M127.603 66.6187C122.156 69.3874 114.371 78.026 108.695 59.5748C107.416 55.4177 103.426 48.3027 100.682 44.2603C97.3837 39.4011 96.0457 37.8065 92.925 33.7656C86.3545 23.77 92.4763 17.857 97.4879 25.096C105.701 36.9596 117.108 43.3477 122.718 52.0176C129.281 62.1607 133.051 63.8499 127.603 66.6187Z"
            fill="#DEBFA9"
    />
    <path
            d="M92.4687 14.1451C94.2939 17.3392 94.2939 19.6206 96.5754 24.6399C98.2484 28.4423 99.6476 36.7671 94.7502 35.1346C92.0124 34.222 88.8184 24.6399 86.9932 21.9021C84.1634 17.6574 80.1488 9.58218 82.4303 8.21331C84.7117 6.84443 85.6243 7.30072 88.8184 8.21331C92.0124 9.12589 90.6436 10.9511 92.4687 14.1451Z"
            fill="#DEBFA9"
    />
    <path
            d="M113.187 64.9963C98.0261 69.2528 91.9363 67.7704 76.9548 67.7704C70.388 67.7704 63.9088 66.7048 61.8971 67.9111C56.5004 71.1471 66.2898 79.4227 64.6349 83.0454C67.8459 94.4825 90.1447 87.3832 97.0316 85.7831C103.919 84.1831 114.792 78.0909 122.584 74.8321C133.224 70.3823 131.504 70.4231 129.885 62.5122C128.787 57.1512 119.232 63.2993 113.187 64.9963Z"
            fill="#DEBFA9"
    />
    <path
            d="M81.5177 144.188L83.7991 151.489C83.7991 152.706 80.5138 156.6 67.3726 162.44C50.946 169.741 24.0248 164.722 23.5685 159.702C23.2034 155.687 26.4583 149.816 28.1314 147.383L81.5177 144.188Z"
            fill="#DEBFA9"
    />
    <path
            d="M18.5493 60.687C23.6597 59.2268 25.0894 58.5576 29.5003 56.124C33.9111 57.0366 45.0142 64.6111 55.9653 65.7062C64.1785 66.5275 69.3499 72.5506 75.1296 84.4142C83.7991 102.21 80.1635 98.103 75.1296 115.442C71.8443 126.758 81.0614 134.911 82.4303 146.47C51.0373 155.961 34.9758 153.619 26.7625 149.664C26.002 145.862 29.6828 149.482 28.5877 134.15C27.2188 114.986 12.1611 87.1519 11.7048 75.7446C11.2486 64.3373 12.1612 62.5121 18.5493 60.687Z"
            fill="#EEEEEE"
    />
    <path
            d="M29.044 56.5803C29.044 56.5803 39.5387 43.3478 40.4513 37.8723C41.3639 32.3968 57.7904 52.4737 57.7904 52.4737C57.7904 52.4737 55.0527 56.5803 56.4216 65.7062C52.7712 75.2883 30.8692 61.7875 29.044 56.5803Z"
            fill="#DEBFA9"
    />
    <path
            d="M93 184C91 175 86 150.456 83.3429 151.489C54.5964 162.668 39.5387 161.071 25.8499 157.797C25.5457 161.295 19.2793 173.209 16.724 188.905C13.53 208.526 29.9566 211.183 60.5282 211.64C91.0998 212.096 93.9126 188.107 93 184Z"
            fill="#1D1E3E"
    />
    <path
            d="M71.023 43.8041C78.3237 36.9598 77.3768 31.5599 79.4892 23.6027C81.539 15.8815 76.8209 12.7483 67.2877 7.6949C57.7545 2.64154 48.7104 6.19826 43.5084 17.6008C38.3063 29.0033 40.8051 35.411 41.6603 40.9474C42.5155 46.4838 50.9621 49.0826 55.509 52.93C61.4408 57.9492 64.1798 50.2195 71.023 43.8041Z"
            fill="#DEBFA9"
    />
    <path
            d="M6.68562 77.1135C10.3359 59.3181 17.5 60.2505 20.8495 61.9811C32.5 68 30.5799 74.8585 23.5 92.5C14.8662 114.013 15.9279 130.51 15.6387 137.805C15.219 148.389 5.37156 139.139 1.44948 128.675C-0.203908 124.263 1.44693 118.886 1.66647 115.898C2.80557 100.399 3.19424 94.1343 6.68562 77.1135Z"
            fill="#DEBFA9"
    />
    <path
            d="M21.9961 142.067C15.6041 120.252 10.1407 116.232 4.78862 117.704C0.00801316 118.2 0.912996 121.869 1.66641 129.131C6.13182 145.641 22.8987 177.297 26.1869 182.461C29.4752 187.624 33.5599 187.201 36.1718 181.425C38.7837 175.649 28.3881 163.883 21.9961 142.067Z"
            fill="#DEBFA9"
    />
    <path
            d="M105.059 364.458C109.255 361.222 92.0882 357.015 76.8284 345.365C75.3025 342.991 70.9534 339.669 65.7651 345.365C59.2797 352.484 61.5687 357.662 68.0541 358.633C74.5395 359.604 85.9843 366.723 93.6141 366.723C101.244 366.723 100.863 367.694 105.059 364.458Z"
            fill="#DEBFA9"
    />
    <path
            d="M36.3578 375.323C34.8347 364.597 34.4539 367.072 28.3616 360.471C26.5846 361.571 23.0307 364.514 23.0307 367.485C23.0307 371.198 18.0807 393.888 23.0307 398.839C27.9808 403.79 38.6425 401.314 39.0232 396.364C39.404 391.413 37.8809 386.05 36.3578 375.323Z"
            fill="#DEBFA9"
    />
    <path
            d="M58.1073 191.408C54.7069 198.198 59.6156 240.01 65.8607 263.543C67.5184 269.789 65.8607 272.783 65.8607 283.734C65.8607 299.248 87.2807 294.888 93.0858 273.466C103.14 236.364 96.6783 203.507 94.7501 191.408C93.145 181.336 90.1871 172.935 89.2746 172.022C79.8773 174.256 60.8276 185.975 58.1073 191.408Z"
            fill="#1D1E3E"
    />
    <path
            d="M59.1593 215.37C62.8096 179.323 36.8009 164.265 34.5195 163.809C32.3901 161.223 25.1199 173.939 18.5492 185.255C10.336 199.4 20.8307 256.969 20.8307 274.152C20.8307 291.334 43.1998 290.079 45.4705 280.996C49.5772 264.569 55.5089 251.417 59.1593 215.37Z"
            fill="#1D1E3E"
    />
    <path
            d="M88.6943 300.264C92.0123 275.52 95.385 265.162 81.2189 264.674C57.7904 273.776 66.1341 297.306 67.3726 312.56C68.2934 323.902 64.8175 338.47 64.6348 347.695C64.5718 350.877 67.6079 351.265 74.6733 351.265C84.4907 351.265 81.3005 346.318 81.2189 341.226C81.0274 329.286 86.351 317.738 88.6943 300.264Z"
            fill="#1D1E3E"
    />
    <path
            d="M41.4592 310.166C48.4225 280.504 45.8113 259.512 37.5424 270.92C24.4863 273.202 23.1807 267.726 17.0878 288.718C11.6477 307.461 17.0878 343.052 19.4618 358.566C20.3695 364.498 21.7433 371.798 21.7433 371.798C23.7465 376.064 37.5424 373.874 37.5424 369.339C37.5424 364.954 34.496 339.829 41.4592 310.166Z"
            fill="#1D1E3E"
    />
    <circle
            r="1.36888"
            transform="matrix(-1 0 0 1 58.6156 27.8338)"
            fill="#1D1E3E"
    />
    <circle
            r="1.36888"
            transform="matrix(-1 0 0 1 70.4792 33.3094)"
            fill="#1D1E3E"
    />
    <path
            fill-rule="evenodd"
            clip-rule="evenodd"
            d="M57.7577 19.5937C59.1522 19.5615 60.9041 20.2951 62.4941 21.269C62.675 21.3798 64.227 21.8901 64.4856 21.159C64.9353 19.8876 63.9409 20.4006 62.9253 20.0498C61.9097 19.699 59.245 18.7499 57.7707 18.7839C57.0313 18.801 56.3995 18.884 55.9513 18.9629C55.727 19.0024 55.5481 19.0411 55.4242 19.0701C55.3622 19.0847 55.3139 19.0968 55.2804 19.1055C55.2637 19.1099 55.2507 19.1134 55.2415 19.1159L55.2307 19.1188L55.2274 19.1197L55.2264 19.12C55.2264 19.12 55.2257 19.1202 55.313 19.5109L55.2264 19.12C55.0187 19.1791 54.8888 19.402 54.937 19.6177C54.9852 19.8334 55.1925 19.9604 55.4 19.9016L55.4013 19.9013L55.4081 19.8994L55.4386 19.8913C55.4664 19.8841 55.5087 19.8734 55.5644 19.8603C55.676 19.8342 55.841 19.7985 56.0502 19.7616C56.469 19.6878 57.0627 19.6098 57.7577 19.5937Z"
            fill="#1D1E3E"
    />
    <path
            fill-rule="evenodd"
            clip-rule="evenodd"
            d="M74.7114 27.8232C74.2795 26.7998 73.143 25.8416 71.8751 25.1024C71.7309 25.0182 70.8312 24.1103 71.3075 23.6138C72.1357 22.7504 72.0677 23.6874 72.6694 24.2744C73.2711 24.8613 74.8719 26.3893 75.3285 27.4712C75.5575 28.0138 75.7007 28.5064 75.7869 28.8643C75.83 29.0435 75.8589 29.1893 75.8772 29.2913C75.8863 29.3424 75.8928 29.3825 75.8971 29.4104C75.8992 29.4244 75.9008 29.4353 75.9019 29.443L75.9032 29.4521L75.9035 29.4548L75.9036 29.4557C75.9036 29.4557 75.9037 29.4562 75.5754 29.5583L75.9036 29.4557C75.9264 29.631 75.7978 29.8194 75.6165 29.8757C75.4353 29.932 75.2699 29.8357 75.2471 29.6606L75.2469 29.6595L75.2462 29.6538L75.2424 29.6282C75.2388 29.6051 75.2332 29.5699 75.2249 29.524C75.2085 29.4322 75.1819 29.2976 75.1416 29.1306C75.0611 28.7961 74.9266 28.3332 74.7114 27.8232Z"
            fill="#1D1E3E"
    />
    <path
            d="M45.4705 32.8531C49.5772 24.6398 43.1891 18.708 54.5964 11.4073C60.5282 7.75698 59.1593 11.4073 66.9163 15.0577C74.6733 18.708 72.3918 15.0577 77.411 19.6206C81.4264 23.2709 78.6278 32.0926 76.4984 36.0471L85.6243 34.222C83.7991 27.3776 90.6435 26.0087 87.4495 15.0577C84.2554 4.10664 78.7799 8.21328 72.3918 4.56293C66.0037 0.912589 61.4408 -0.45629 50.0335 3.19405C38.6261 6.8444 45.0142 11.4073 39.0824 15.0577C33.1506 18.708 34.9758 22.8146 28.1314 31.4842C21.287 40.1538 24.481 44.7167 25.8499 49.2796C26.945 52.93 21.4391 58.1013 18.5492 60.2307C23.5685 60.687 27.2188 56.5803 31.7817 57.9492C36.3447 59.3181 31.7817 53.3863 43.6454 51.1048C49.9822 49.8862 41.3639 41.0664 45.4705 32.8531Z"
            fill="#1D1E3E"
    />
</svg>
