<svg width="182" height="402" viewBox="0 0 182 402" fill="none" xmlns="http://www.w3.org/2000/svg">
<path d="M72.3918 4.56293C66.0037 0.912589 61.4408 -0.45629 50.0335 3.19405L75.1296 19.1643C79.145 22.8146 75.4338 29.3548 73.3044 33.3094C72.0876 36.0471 68.5589 41.8877 64.1785 46.9982C59.7981 52.1087 58.8551 51.2569 57.3341 50.1922L54.5964 66.1625C58.2467 66.1625 64.3306 69.8128 65.5474 71.1817C66.1558 70.5733 70.3841 69.8128 73.3044 69.8128C76.2247 69.8128 83.647 70.2691 87.4495 70.2691C85.0159 69.5086 80.4225 64.1548 88.8183 57.9492C99.3131 50.1922 87.4495 41.0664 85.6243 34.222C83.7991 27.3776 90.6435 26.0087 87.4495 15.0577C84.2554 4.10664 78.7799 8.21328 72.3918 4.56293Z" fill="#1D1E3E"/>
<path d="M127.603 66.6187C122.156 69.3874 114.371 78.026 108.695 59.5748C107.416 55.4177 103.426 48.3027 100.682 44.2603C97.3837 39.4011 96.0457 37.8065 92.925 33.7656C86.3545 23.77 92.4763 17.857 97.4879 25.096C105.701 36.9596 117.108 43.3477 122.718 52.0176C129.281 62.1607 133.051 63.8499 127.603 66.6187Z" fill="#DEBFA9"/>
<path d="M92.4687 14.1451C94.2939 17.3392 94.2939 19.6206 96.5754 24.6399C98.2484 28.4423 99.6476 36.7671 94.7502 35.1346C92.0124 34.222 88.8184 24.6399 86.9932 21.9021C84.1634 17.6574 80.1488 9.58218 82.4303 8.21331C84.7117 6.84443 85.6243 7.30072 88.8184 8.21331C92.0124 9.12589 90.6436 10.9511 92.4687 14.1451Z" fill="#DEBFA9"/>
<path d="M113.187 64.9963C98.0261 69.2528 91.9363 67.7704 76.9548 67.7704C70.388 67.7704 63.9088 66.7048 61.8971 67.9111C56.5004 71.1471 66.2898 79.4227 64.6349 83.0454C67.8459 94.4825 90.1447 87.3832 97.0316 85.7831C103.919 84.1831 114.792 78.0909 122.584 74.8321C133.224 70.3823 131.504 70.4231 129.885 62.5122C128.787 57.1512 119.232 63.2993 113.187 64.9963Z" fill="#DEBFA9"/>
<path d="M81.5177 144.188L83.7991 151.489C83.7991 152.706 80.5138 156.6 67.3726 162.44C50.946 169.741 24.0248 164.722 23.5685 159.702C23.2034 155.687 26.4583 149.816 28.1314 147.383L81.5177 144.188Z" fill="#DEBFA9"/>
<path d="M18.5493 60.687C23.6597 59.2268 25.0894 58.5576 29.5003 56.124C33.9111 57.0366 45.0142 64.6111 55.9653 65.7062C64.1785 66.5275 69.3499 72.5506 75.1296 84.4142C83.7991 102.21 80.1635 98.103 75.1296 115.442C71.8443 126.758 81.0614 134.911 82.4303 146.47C51.0373 155.961 34.9758 153.619 26.7625 149.664C26.002 145.862 29.6828 149.482 28.5877 134.15C27.2188 114.986 12.1611 87.1519 11.7048 75.7446C11.2486 64.3373 12.1612 62.5121 18.5493 60.687Z" fill="#EEEEEE"/>
<path d="M29.044 56.5803C29.044 56.5803 39.5387 43.3478 40.4513 37.8723C41.3639 32.3968 57.7904 52.4737 57.7904 52.4737C57.7904 52.4737 55.0527 56.5803 56.4216 65.7062C52.7712 75.2883 30.8692 61.7875 29.044 56.5803Z" fill="#DEBFA9"/>
<path d="M93 184C91 175 86 150.456 83.3429 151.489C54.5964 162.668 39.5387 161.071 25.8499 157.797C25.5457 161.295 19.2793 173.209 16.724 188.905C13.53 208.526 29.9566 211.183 60.5282 211.64C91.0998 212.096 93.9126 188.107 93 184Z" fill="#1D1E3E"/>
<path d="M71.023 43.8041C78.3237 36.9598 77.3768 31.5599 79.4892 23.6027C81.539 15.8815 76.8209 12.7483 67.2877 7.6949C57.7545 2.64154 48.7104 6.19826 43.5084 17.6008C38.3063 29.0033 40.8051 35.411 41.6603 40.9474C42.5155 46.4838 50.9621 49.0826 55.509 52.93C61.4408 57.9492 64.1798 50.2195 71.023 43.8041Z" fill="#DEBFA9"/>
<path d="M6.68562 77.1135C10.3359 59.3181 17.5 60.2505 20.8495 61.9811C32.5 68 30.5799 74.8585 23.5 92.5C14.8662 114.013 15.9279 130.51 15.6387 137.805C15.219 148.389 5.37156 139.139 1.44948 128.675C-0.203908 124.263 1.44693 118.886 1.66647 115.898C2.80557 100.399 3.19424 94.1343 6.68562 77.1135Z" fill="#DEBFA9"/>
<path d="M21.9961 142.067C15.6041 120.252 10.1407 116.232 4.78862 117.704C0.00801316 118.2 0.912996 121.869 1.66641 129.131C6.13182 145.641 22.8987 177.297 26.1869 182.461C29.4752 187.624 33.5599 187.201 36.1718 181.425C38.7837 175.649 28.3881 163.883 21.9961 142.067Z" fill="#DEBFA9"/>
<path d="M105.059 364.458C109.255 361.222 92.0882 357.015 76.8284 345.365C75.3025 342.991 70.9534 339.669 65.7651 345.365C59.2797 352.484 61.5687 357.662 68.0541 358.633C74.5395 359.604 85.9843 366.723 93.6141 366.723C101.244 366.723 100.863 367.694 105.059 364.458Z" fill="#DEBFA9"/>
<path d="M36.3578 375.323C34.8347 364.597 34.4539 367.072 28.3616 360.471C26.5846 361.571 23.0307 364.514 23.0307 367.485C23.0307 371.198 18.0807 393.888 23.0307 398.839C27.9808 403.79 38.6425 401.314 39.0232 396.364C39.404 391.413 37.8809 386.05 36.3578 375.323Z" fill="#DEBFA9"/>
<path d="M58.1073 191.408C54.7069 198.198 59.6156 240.01 65.8607 263.543C67.5184 269.789 65.8607 272.783 65.8607 283.734C65.8607 299.248 87.2807 294.888 93.0858 273.466C103.14 236.364 96.6783 203.507 94.7501 191.408C93.145 181.336 90.1871 172.935 89.2746 172.022C79.8773 174.256 60.8276 185.975 58.1073 191.408Z" fill="#1D1E3E"/>
<path d="M59.1593 215.37C62.8096 179.323 36.8009 164.265 34.5195 163.809C32.3901 161.223 25.1199 173.939 18.5492 185.255C10.336 199.4 20.8307 256.969 20.8307 274.152C20.8307 291.334 43.1998 290.079 45.4705 280.996C49.5772 264.569 55.5089 251.417 59.1593 215.37Z" fill="#1D1E3E"/>
<path d="M88.6943 300.264C92.0123 275.52 95.385 265.162 81.2189 264.674C57.7904 273.776 66.1341 297.306 67.3726 312.56C68.2934 323.902 64.8175 338.47 64.6348 347.695C64.5718 350.877 67.6079 351.265 74.6733 351.265C84.4907 351.265 81.3005 346.318 81.2189 341.226C81.0274 329.286 86.351 317.738 88.6943 300.264Z" fill="#1D1E3E"/>
<path d="M41.4592 310.166C48.4225 280.504 45.8113 259.512 37.5424 270.92C24.4863 273.202 23.1807 267.726 17.0878 288.718C11.6477 307.461 17.0878 343.052 19.4618 358.566C20.3695 364.498 21.7433 371.798 21.7433 371.798C23.7465 376.064 37.5424 373.874 37.5424 369.339C37.5424 364.954 34.496 339.829 41.4592 310.166Z" fill="#1D1E3E"/>
<circle r="1.36888" transform="matrix(-1 0 0 1 58.6156 27.8338)" fill="#1D1E3E"/>
<circle r="1.36888" transform="matrix(-1 0 0 1 70.4792 33.3094)" fill="#1D1E3E"/>
<path fill-rule="evenodd" clip-rule="evenodd" d="M57.7577 19.5937C59.1522 19.5615 60.9041 20.2951 62.4941 21.269C62.675 21.3798 64.227 21.8901 64.4856 21.159C64.9353 19.8876 63.9409 20.4006 62.9253 20.0498C61.9097 19.699 59.245 18.7499 57.7707 18.7839C57.0313 18.801 56.3995 18.884 55.9513 18.9629C55.727 19.0024 55.5481 19.0411 55.4242 19.0701C55.3622 19.0847 55.3139 19.0968 55.2804 19.1055C55.2637 19.1099 55.2507 19.1134 55.2415 19.1159L55.2307 19.1188L55.2274 19.1197L55.2264 19.12C55.2264 19.12 55.2257 19.1202 55.313 19.5109L55.2264 19.12C55.0187 19.1791 54.8888 19.402 54.937 19.6177C54.9852 19.8334 55.1925 19.9604 55.4 19.9016L55.4013 19.9013L55.4081 19.8994L55.4386 19.8913C55.4664 19.8841 55.5087 19.8734 55.5644 19.8603C55.676 19.8342 55.841 19.7985 56.0502 19.7616C56.469 19.6878 57.0627 19.6098 57.7577 19.5937Z" fill="#1D1E3E"/>
<path fill-rule="evenodd" clip-rule="evenodd" d="M74.7114 27.8232C74.2795 26.7998 73.143 25.8416 71.8751 25.1024C71.7309 25.0182 70.8312 24.1103 71.3075 23.6138C72.1357 22.7504 72.0677 23.6874 72.6694 24.2744C73.2711 24.8613 74.8719 26.3893 75.3285 27.4712C75.5575 28.0138 75.7007 28.5064 75.7869 28.8643C75.83 29.0435 75.8589 29.1893 75.8772 29.2913C75.8863 29.3424 75.8928 29.3825 75.8971 29.4104C75.8992 29.4244 75.9008 29.4353 75.9019 29.443L75.9032 29.4521L75.9035 29.4548L75.9036 29.4557C75.9036 29.4557 75.9037 29.4562 75.5754 29.5583L75.9036 29.4557C75.9264 29.631 75.7978 29.8194 75.6165 29.8757C75.4353 29.932 75.2699 29.8357 75.2471 29.6606L75.2469 29.6595L75.2462 29.6538L75.2424 29.6282C75.2388 29.6051 75.2332 29.5699 75.2249 29.524C75.2085 29.4322 75.1819 29.2976 75.1416 29.1306C75.0611 28.7961 74.9266 28.3332 74.7114 27.8232Z" fill="#1D1E3E"/>
<path d="M45.4705 32.8531C49.5772 24.6398 43.1891 18.708 54.5964 11.4073C60.5282 7.75698 59.1593 11.4073 66.9163 15.0577C74.6733 18.708 72.3918 15.0577 77.411 19.6206C81.4264 23.2709 78.6278 32.0926 76.4984 36.0471L85.6243 34.222C83.7991 27.3776 90.6435 26.0087 87.4495 15.0577C84.2554 4.10664 78.7799 8.21328 72.3918 4.56293C66.0037 0.912589 61.4408 -0.45629 50.0335 3.19405C38.6261 6.8444 45.0142 11.4073 39.0824 15.0577C33.1506 18.708 34.9758 22.8146 28.1314 31.4842C21.287 40.1538 24.481 44.7167 25.8499 49.2796C26.945 52.93 21.4391 58.1013 18.5492 60.2307C23.5685 60.687 27.2188 56.5803 31.7817 57.9492C36.3447 59.3181 31.7817 53.3863 43.6454 51.1048C49.9822 49.8862 41.3639 41.0664 45.4705 32.8531Z" fill="#1D1E3E"/>
</svg>
